<?xml version="1.0" standalone="no"?>
<!DOCTYPE svg PUBLIC "-//W3C//DTD SVG 20010904//EN"
 "http://www.w3.org/TR/2001/REC-SVG-20010904/DTD/svg10.dtd">
<svg version="1.0" xmlns="http://www.w3.org/2000/svg"
 width="700.000000pt" height="700.000000pt" viewBox="0 0 700.000000 700.000000"
 preserveAspectRatio="xMidYMid meet">
<metadata>
Created by potrace 1.14, written by Peter Selinger 2001-2017
</metadata>
<g transform="translate(0.000000,700.000000) scale(0.100000,-0.100000)"
fill="#000000" stroke="none">
<path d="M6177 5594 c-1 -1 -46 -4 -100 -8 -82 -5 -150 -13 -257 -31 -108 -17
-308 -68 -418 -105 -59 -21 -103 -30 -120 -27 -15 4 -67 15 -117 25 -84 18
-204 40 -257 46 -13 2 -50 7 -83 11 -33 4 -71 8 -85 10 -24 4 -109 10 -275 21
-181 11 -529 6 -685 -11 -95 -10 -154 -17 -173 -21 -10 -2 -45 -6 -76 -10
-136 -15 -430 -85 -636 -151 -351 -113 -783 -329 -1044 -521 -421 -311 -688
-698 -760 -1099 -76 -426 60 -804 361 -1000 36 -23 69 -43 72 -43 3 0 29 -11
57 -25 118 -56 309 -82 477 -64 139 15 170 22 268 54 220 73 410 203 546 373
210 264 311 592 303 982 -4 228 -42 368 -163 614 -36 73 -37 74 -64 63 l-26
-12 24 -50 c56 -113 119 -300 150 -440 14 -64 13 -320 -2 -414 -30 -194 -85
-370 -159 -507 -31 -58 -50 -87 -102 -164 -9 -14 -56 -63 -103 -110 -134 -132
-252 -181 -430 -181 -287 0 -478 155 -555 451 -23 88 -24 99 -25 220 -2 132 6
220 31 340 100 492 444 963 924 1265 170 108 474 243 650 291 105 28 242 59
296 67 398 61 824 55 1079 -13 204 -56 350 -105 350 -118 0 -4 -37 -25 -82
-47 -279 -137 -598 -405 -864 -725 -125 -150 -300 -396 -431 -605 -51 -81
-173 -294 -173 -301 0 -3 -10 -21 -23 -42 -13 -20 -37 -62 -54 -92 -17 -30
-83 -149 -148 -265 -65 -115 -129 -230 -143 -255 -222 -401 -426 -722 -564
-885 -310 -370 -606 -538 -965 -549 -147 -5 -270 35 -348 111 -42 43 -91 138
-101 198 -3 22 -7 47 -9 55 -1 9 15 22 39 33 62 28 119 80 151 138 26 48 29
63 30 144 0 132 -40 214 -135 275 -64 41 -131 58 -226 58 -145 0 -243 -53
-323 -178 -126 -195 -78 -489 111 -669 85 -82 306 -183 448 -205 19 -3 58 -9
85 -13 66 -10 479 -10 575 1 68 7 196 26 275 41 165 31 354 96 525 181 326
162 587 375 857 697 64 76 283 394 283 411 0 2 17 33 38 67 21 35 52 89 69
119 17 30 62 111 102 180 39 69 77 134 83 145 6 11 72 130 146 265 114 207
255 461 334 600 157 275 343 550 478 704 57 66 118 133 166 184 l51 54 40 -49
c61 -72 100 -139 122 -207 31 -95 33 -111 36 -276 3 -133 0 -169 -20 -256 -44
-191 -123 -339 -251 -467 -190 -192 -432 -315 -739 -378 -60 -12 -111 -23
-111 -23 -1 -1 -5 -12 -9 -25 -7 -23 -6 -23 39 -17 126 19 279 1 396 -47 233
-95 356 -290 365 -577 13 -437 -209 -909 -546 -1161 -57 -42 -177 -105 -219
-115 -121 -28 -204 -26 -273 4 -86 38 -129 107 -129 207 0 100 30 182 98 275
57 76 62 82 116 138 l52 54 -35 33 c-45 42 -131 91 -195 110 -68 20 -243 15
-304 -10 -103 -41 -184 -127 -222 -233 -37 -105 -29 -272 18 -365 65 -128 231
-246 407 -291 153 -39 409 -40 607 -2 41 8 86 17 100 19 76 14 273 76 365 114
242 101 426 222 586 382 245 246 341 465 333 758 -8 307 -157 525 -442 648
-67 30 -146 55 -215 70 -10 2 -26 6 -35 9 -9 3 -39 8 -67 11 -27 4 -63 9 -80
11 -16 2 -68 6 -113 8 -79 4 -124 15 -71 17 158 6 399 58 584 125 85 31 277
132 336 177 106 80 208 185 257 268 57 95 93 240 93 374 0 366 -159 609 -541
827 -50 28 -90 54 -90 57 0 11 101 73 176 107 63 30 169 60 269 79 50 9 170
17 273 19 l97 1 0 30 0 30 -93 1 c-51 0 -94 -1 -95 -2z"/>
</g>
</svg>
