<?xml version="1.0" encoding="UTF-8" standalone="no"?>
<!DOCTYPE svg PUBLIC "-//W3C//DTD SVG 1.1//EN" "http://www.w3.org/Graphics/SVG/1.1/DTD/svg11.dtd">
<svg width="100%" height="100%" viewBox="0 0 214 214" version="1.1" xmlns="http://www.w3.org/2000/svg" xmlns:xlink="http://www.w3.org/1999/xlink" xml:space="preserve" xmlns:serif="http://www.serif.com/" style="fill-rule:evenodd;clip-rule:evenodd;stroke-linejoin:round;stroke-miterlimit:2;">
    <g transform="matrix(1.33333,0,0,1.33333,0,0)">
        <g transform="matrix(128,0,0,128,14.27,125.824)">
            <path d="M1.029,-0.72C1.003,-0.721 0.977,-0.72 0.952,-0.715C0.926,-0.71 0.902,-0.7 0.881,-0.683C0.914,-0.667 0.942,-0.647 0.964,-0.622C0.985,-0.597 0.996,-0.565 0.996,-0.525C0.996,-0.495 0.988,-0.47 0.973,-0.449C0.957,-0.428 0.937,-0.411 0.914,-0.398C0.891,-0.385 0.865,-0.375 0.839,-0.368C0.812,-0.361 0.787,-0.357 0.764,-0.356L0.764,-0.354C0.825,-0.353 0.871,-0.34 0.904,-0.316C0.936,-0.292 0.952,-0.257 0.952,-0.211C0.952,-0.178 0.943,-0.147 0.924,-0.12C0.905,-0.092 0.881,-0.068 0.852,-0.048C0.822,-0.028 0.789,-0.012 0.752,-0.001C0.715,0.01 0.679,0.016 0.642,0.016C0.628,0.016 0.613,0.014 0.598,0.011C0.583,0.008 0.569,0.002 0.557,-0.006C0.544,-0.013 0.534,-0.023 0.526,-0.035C0.518,-0.047 0.514,-0.062 0.514,-0.079C0.514,-0.102 0.521,-0.12 0.535,-0.134C0.548,-0.147 0.566,-0.154 0.589,-0.154C0.604,-0.154 0.617,-0.151 0.628,-0.145C0.639,-0.139 0.648,-0.132 0.654,-0.125C0.643,-0.115 0.632,-0.103 0.622,-0.088C0.611,-0.073 0.606,-0.058 0.606,-0.041C0.606,-0.028 0.61,-0.018 0.619,-0.011C0.627,-0.004 0.638,-0 0.652,-0C0.673,-0 0.693,-0.007 0.713,-0.021C0.732,-0.034 0.75,-0.052 0.765,-0.073C0.78,-0.094 0.793,-0.118 0.802,-0.145C0.811,-0.172 0.816,-0.198 0.816,-0.224C0.816,-0.249 0.812,-0.27 0.804,-0.287C0.795,-0.304 0.784,-0.317 0.77,-0.326C0.756,-0.335 0.74,-0.341 0.723,-0.344C0.706,-0.347 0.688,-0.346 0.67,-0.343L0.674,-0.352C0.737,-0.362 0.786,-0.384 0.822,-0.419C0.858,-0.453 0.876,-0.498 0.876,-0.553C0.876,-0.572 0.873,-0.589 0.868,-0.605C0.862,-0.62 0.852,-0.635 0.839,-0.648C0.799,-0.608 0.765,-0.564 0.736,-0.516C0.707,-0.467 0.68,-0.419 0.654,-0.37C0.627,-0.321 0.6,-0.274 0.574,-0.229C0.547,-0.184 0.515,-0.143 0.479,-0.109C0.442,-0.074 0.399,-0.045 0.35,-0.024C0.3,-0.003 0.239,0.008 0.168,0.008C0.146,0.008 0.125,0.006 0.105,0.002C0.084,-0.003 0.066,-0.01 0.05,-0.019C0.034,-0.028 0.021,-0.041 0.012,-0.056C0.003,-0.07 -0.002,-0.089 -0.002,-0.111C-0.002,-0.13 0.004,-0.148 0.017,-0.163C0.029,-0.178 0.046,-0.186 0.069,-0.186C0.088,-0.186 0.104,-0.181 0.116,-0.17C0.128,-0.159 0.134,-0.145 0.134,-0.126C0.134,-0.1 0.12,-0.082 0.093,-0.072C0.096,-0.047 0.104,-0.03 0.118,-0.02C0.131,-0.009 0.149,-0.004 0.17,-0.004C0.204,-0.004 0.235,-0.012 0.262,-0.027C0.289,-0.042 0.314,-0.063 0.337,-0.089C0.36,-0.115 0.381,-0.145 0.402,-0.179C0.423,-0.213 0.443,-0.249 0.464,-0.287C0.485,-0.324 0.506,-0.362 0.528,-0.401C0.55,-0.44 0.574,-0.476 0.601,-0.512C0.627,-0.547 0.656,-0.579 0.688,-0.608C0.719,-0.636 0.755,-0.66 0.795,-0.679C0.78,-0.686 0.758,-0.693 0.731,-0.7C0.704,-0.707 0.669,-0.71 0.628,-0.71C0.569,-0.71 0.514,-0.701 0.461,-0.683C0.408,-0.664 0.363,-0.639 0.324,-0.607C0.285,-0.574 0.254,-0.536 0.231,-0.493C0.208,-0.449 0.196,-0.402 0.196,-0.351C0.196,-0.334 0.198,-0.319 0.203,-0.304C0.207,-0.289 0.213,-0.277 0.222,-0.266C0.23,-0.255 0.241,-0.246 0.254,-0.24C0.267,-0.233 0.283,-0.23 0.301,-0.23C0.326,-0.23 0.347,-0.237 0.365,-0.251C0.383,-0.265 0.398,-0.283 0.41,-0.304C0.422,-0.325 0.431,-0.347 0.437,-0.373C0.443,-0.398 0.446,-0.421 0.446,-0.443C0.446,-0.462 0.443,-0.483 0.436,-0.505C0.429,-0.527 0.421,-0.547 0.412,-0.565L0.422,-0.569C0.431,-0.55 0.44,-0.531 0.447,-0.512C0.454,-0.493 0.458,-0.468 0.458,-0.438C0.458,-0.406 0.453,-0.375 0.444,-0.346C0.434,-0.316 0.42,-0.29 0.401,-0.267C0.382,-0.244 0.358,-0.226 0.331,-0.213C0.303,-0.199 0.271,-0.192 0.234,-0.192C0.211,-0.192 0.19,-0.196 0.171,-0.205C0.152,-0.213 0.135,-0.224 0.122,-0.239C0.109,-0.254 0.098,-0.271 0.091,-0.29C0.084,-0.309 0.08,-0.33 0.08,-0.353C0.08,-0.39 0.088,-0.426 0.104,-0.459C0.12,-0.492 0.142,-0.522 0.169,-0.549C0.196,-0.576 0.228,-0.601 0.265,-0.622C0.301,-0.643 0.339,-0.662 0.38,-0.677C0.421,-0.692 0.463,-0.703 0.506,-0.711C0.549,-0.718 0.59,-0.722 0.63,-0.722C0.671,-0.722 0.711,-0.72 0.748,-0.716C0.785,-0.711 0.816,-0.706 0.839,-0.699C0.852,-0.704 0.866,-0.709 0.88,-0.713C0.894,-0.717 0.909,-0.72 0.924,-0.723C0.955,-0.729 0.99,-0.732 1.029,-0.732L1.029,-0.72Z" style="fill:white;fill-rule:nonzero;"/>
        </g>
    </g>
</svg>
