<?xml version="1.0" encoding="UTF-8" standalone="no"?>
<!DOCTYPE svg PUBLIC "-//W3C//DTD SVG 1.1//EN" "http://www.w3.org/Graphics/SVG/1.1/DTD/svg11.dtd">
<svg viewBox="0 0 616 136" version="1.1" xmlns="http://www.w3.org/2000/svg" xmlns:xlink="http://www.w3.org/1999/xlink" xml:space="preserve" xmlns:serif="http://www.serif.com/" style="fill-rule:evenodd;clip-rule:evenodd;stroke-linejoin:round;stroke-miterlimit:2;">
    <g transform="matrix(1,0,0,1,-1365.79,-621.234)">
        <g transform="matrix(128,0,0,128,1366.04,715.346)">
            <path d="M1.029,-0.72C1.003,-0.721 0.977,-0.72 0.952,-0.715C0.926,-0.71 0.902,-0.7 0.881,-0.683C0.914,-0.667 0.942,-0.647 0.964,-0.622C0.985,-0.597 0.996,-0.565 0.996,-0.525C0.996,-0.495 0.988,-0.47 0.973,-0.449C0.957,-0.428 0.937,-0.411 0.914,-0.398C0.891,-0.385 0.865,-0.375 0.839,-0.368C0.812,-0.361 0.787,-0.357 0.764,-0.356L0.764,-0.354C0.825,-0.353 0.871,-0.34 0.904,-0.316C0.936,-0.292 0.952,-0.257 0.952,-0.211C0.952,-0.178 0.943,-0.147 0.924,-0.12C0.905,-0.092 0.881,-0.068 0.852,-0.048C0.822,-0.028 0.789,-0.012 0.752,-0.001C0.715,0.01 0.679,0.016 0.642,0.016C0.628,0.016 0.613,0.014 0.598,0.011C0.583,0.008 0.569,0.002 0.557,-0.006C0.544,-0.013 0.534,-0.023 0.526,-0.035C0.518,-0.047 0.514,-0.062 0.514,-0.079C0.514,-0.102 0.521,-0.12 0.535,-0.134C0.548,-0.147 0.566,-0.154 0.589,-0.154C0.604,-0.154 0.617,-0.151 0.628,-0.145C0.639,-0.139 0.648,-0.132 0.654,-0.125C0.643,-0.115 0.632,-0.103 0.622,-0.088C0.611,-0.073 0.606,-0.058 0.606,-0.041C0.606,-0.028 0.61,-0.018 0.619,-0.011C0.627,-0.004 0.638,-0 0.652,-0C0.673,-0 0.693,-0.007 0.713,-0.021C0.732,-0.034 0.75,-0.052 0.765,-0.073C0.78,-0.094 0.793,-0.118 0.802,-0.145C0.811,-0.172 0.816,-0.198 0.816,-0.224C0.816,-0.249 0.812,-0.27 0.804,-0.287C0.795,-0.304 0.784,-0.317 0.77,-0.326C0.756,-0.335 0.74,-0.341 0.723,-0.344C0.706,-0.347 0.688,-0.346 0.67,-0.343L0.674,-0.352C0.737,-0.362 0.786,-0.384 0.822,-0.419C0.858,-0.453 0.876,-0.498 0.876,-0.553C0.876,-0.572 0.873,-0.589 0.868,-0.605C0.862,-0.62 0.852,-0.635 0.839,-0.648C0.799,-0.608 0.765,-0.564 0.736,-0.516C0.707,-0.467 0.68,-0.419 0.654,-0.37C0.627,-0.321 0.6,-0.274 0.574,-0.229C0.547,-0.184 0.515,-0.143 0.479,-0.109C0.442,-0.074 0.399,-0.045 0.35,-0.024C0.3,-0.003 0.239,0.008 0.168,0.008C0.146,0.008 0.125,0.006 0.105,0.002C0.084,-0.003 0.066,-0.01 0.05,-0.019C0.034,-0.028 0.021,-0.041 0.012,-0.056C0.003,-0.07 -0.002,-0.089 -0.002,-0.111C-0.002,-0.13 0.004,-0.148 0.017,-0.163C0.029,-0.178 0.046,-0.186 0.069,-0.186C0.088,-0.186 0.104,-0.181 0.116,-0.17C0.128,-0.159 0.134,-0.145 0.134,-0.126C0.134,-0.1 0.12,-0.082 0.093,-0.072C0.096,-0.047 0.104,-0.03 0.118,-0.02C0.131,-0.009 0.149,-0.004 0.17,-0.004C0.204,-0.004 0.235,-0.012 0.262,-0.027C0.289,-0.042 0.314,-0.063 0.337,-0.089C0.36,-0.115 0.381,-0.145 0.402,-0.179C0.423,-0.213 0.443,-0.249 0.464,-0.287C0.485,-0.324 0.506,-0.362 0.528,-0.401C0.55,-0.44 0.574,-0.476 0.601,-0.512C0.627,-0.547 0.656,-0.579 0.688,-0.608C0.719,-0.636 0.755,-0.66 0.795,-0.679C0.78,-0.686 0.758,-0.693 0.731,-0.7C0.704,-0.707 0.669,-0.71 0.628,-0.71C0.569,-0.71 0.514,-0.701 0.461,-0.683C0.408,-0.664 0.363,-0.639 0.324,-0.607C0.285,-0.574 0.254,-0.536 0.231,-0.493C0.208,-0.449 0.196,-0.402 0.196,-0.351C0.196,-0.334 0.198,-0.319 0.203,-0.304C0.207,-0.289 0.213,-0.277 0.222,-0.266C0.23,-0.255 0.241,-0.246 0.254,-0.24C0.267,-0.233 0.283,-0.23 0.301,-0.23C0.326,-0.23 0.347,-0.237 0.365,-0.251C0.383,-0.265 0.398,-0.283 0.41,-0.304C0.422,-0.325 0.431,-0.347 0.437,-0.373C0.443,-0.398 0.446,-0.421 0.446,-0.443C0.446,-0.462 0.443,-0.483 0.436,-0.505C0.429,-0.527 0.421,-0.547 0.412,-0.565L0.422,-0.569C0.431,-0.55 0.44,-0.531 0.447,-0.512C0.454,-0.493 0.458,-0.468 0.458,-0.438C0.458,-0.406 0.453,-0.375 0.444,-0.346C0.434,-0.316 0.42,-0.29 0.401,-0.267C0.382,-0.244 0.358,-0.226 0.331,-0.213C0.303,-0.199 0.271,-0.192 0.234,-0.192C0.211,-0.192 0.19,-0.196 0.171,-0.205C0.152,-0.213 0.135,-0.224 0.122,-0.239C0.109,-0.254 0.098,-0.271 0.091,-0.29C0.084,-0.309 0.08,-0.33 0.08,-0.353C0.08,-0.39 0.088,-0.426 0.104,-0.459C0.12,-0.492 0.142,-0.522 0.169,-0.549C0.196,-0.576 0.228,-0.601 0.265,-0.622C0.301,-0.643 0.339,-0.662 0.38,-0.677C0.421,-0.692 0.463,-0.703 0.506,-0.711C0.549,-0.718 0.59,-0.722 0.63,-0.722C0.671,-0.722 0.711,-0.72 0.748,-0.716C0.785,-0.711 0.816,-0.706 0.839,-0.699C0.852,-0.704 0.866,-0.709 0.88,-0.713C0.894,-0.717 0.909,-0.72 0.924,-0.723C0.955,-0.729 0.99,-0.732 1.029,-0.732L1.029,-0.72Z" style="fill:white;fill-rule:nonzero;"/>
        </g>
        <g transform="matrix(128,0,0,128,1494.04,715.346)">
            <path d="M0.562,-0.36L0.496,-0.265C0.483,-0.246 0.469,-0.226 0.456,-0.205C0.443,-0.184 0.431,-0.163 0.42,-0.143C0.409,-0.123 0.4,-0.104 0.393,-0.087C0.386,-0.07 0.382,-0.055 0.382,-0.043C0.382,-0.024 0.39,-0.014 0.405,-0.014C0.419,-0.014 0.436,-0.021 0.455,-0.034C0.474,-0.047 0.494,-0.065 0.517,-0.088C0.54,-0.11 0.563,-0.136 0.588,-0.166C0.613,-0.196 0.638,-0.228 0.663,-0.261L0.669,-0.257C0.642,-0.223 0.616,-0.19 0.591,-0.158C0.566,-0.125 0.541,-0.096 0.516,-0.072C0.491,-0.047 0.466,-0.026 0.441,-0.011C0.416,0.004 0.39,0.012 0.364,0.012C0.341,0.012 0.324,0.008 0.312,0.001C0.3,-0.006 0.291,-0.016 0.286,-0.027C0.28,-0.038 0.277,-0.049 0.276,-0.061C0.275,-0.073 0.274,-0.084 0.274,-0.093L0.271,-0.095C0.26,-0.082 0.249,-0.07 0.237,-0.057C0.224,-0.044 0.211,-0.033 0.196,-0.023C0.181,-0.012 0.166,-0.004 0.15,0.003C0.134,0.009 0.117,0.012 0.099,0.012C0.067,0.012 0.043,0.003 0.027,-0.017C0.01,-0.035 0.002,-0.066 0.002,-0.108C0.002,-0.137 0.009,-0.167 0.024,-0.199C0.039,-0.23 0.059,-0.258 0.087,-0.284C0.114,-0.309 0.146,-0.33 0.183,-0.347C0.22,-0.364 0.261,-0.372 0.306,-0.372C0.332,-0.372 0.352,-0.366 0.366,-0.353C0.379,-0.339 0.388,-0.323 0.392,-0.304L0.394,-0.304L0.42,-0.356L0.562,-0.36ZM0.165,-0.032C0.179,-0.032 0.197,-0.041 0.219,-0.059C0.241,-0.077 0.263,-0.1 0.284,-0.128C0.305,-0.156 0.324,-0.187 0.339,-0.22C0.354,-0.253 0.362,-0.284 0.362,-0.314C0.362,-0.329 0.358,-0.341 0.349,-0.349C0.339,-0.356 0.329,-0.36 0.318,-0.36C0.304,-0.36 0.29,-0.355 0.276,-0.346C0.261,-0.337 0.247,-0.324 0.234,-0.309C0.22,-0.293 0.207,-0.275 0.195,-0.256C0.182,-0.236 0.171,-0.216 0.162,-0.196C0.153,-0.175 0.145,-0.155 0.14,-0.135C0.135,-0.115 0.132,-0.097 0.132,-0.082C0.132,-0.071 0.134,-0.059 0.139,-0.049C0.143,-0.038 0.152,-0.032 0.165,-0.032Z" style="fill:white;fill-rule:nonzero;"/>
        </g>
        <g transform="matrix(128,0,0,128,1565.21,715.346)">
            <path d="M0.042,-0.336L0.049,-0.352L0.132,-0.352L0.217,-0.497L0.356,-0.502L0.266,-0.352L0.403,-0.352L0.395,-0.336L0.257,-0.336C0.248,-0.32 0.235,-0.299 0.219,-0.273C0.202,-0.247 0.186,-0.22 0.17,-0.192C0.154,-0.164 0.14,-0.137 0.128,-0.111C0.116,-0.085 0.11,-0.064 0.11,-0.047C0.11,-0.036 0.113,-0.027 0.12,-0.022C0.126,-0.017 0.135,-0.014 0.146,-0.014C0.163,-0.014 0.182,-0.019 0.201,-0.029C0.22,-0.038 0.24,-0.051 0.26,-0.066C0.279,-0.081 0.298,-0.098 0.317,-0.118C0.335,-0.136 0.352,-0.155 0.369,-0.174C0.385,-0.193 0.4,-0.21 0.413,-0.227C0.426,-0.243 0.437,-0.256 0.445,-0.266L0.453,-0.262C0.43,-0.235 0.406,-0.206 0.381,-0.174C0.356,-0.142 0.328,-0.112 0.299,-0.085C0.27,-0.057 0.238,-0.034 0.204,-0.016C0.17,0.003 0.133,0.012 0.093,0.012C0.062,0.012 0.04,0.004 0.025,-0.013C0.01,-0.029 0.002,-0.05 0.002,-0.076C0.002,-0.089 0.004,-0.102 0.008,-0.116C0.011,-0.129 0.018,-0.145 0.027,-0.164C0.036,-0.183 0.049,-0.206 0.064,-0.233C0.079,-0.26 0.099,-0.295 0.123,-0.336L0.042,-0.336Z" style="fill:white;fill-rule:nonzero;"/>
        </g>
        <g transform="matrix(128,0,0,128,1607.84,715.346)">
            <path d="M0.042,-0.336L0.049,-0.352L0.132,-0.352L0.217,-0.497L0.356,-0.502L0.266,-0.352L0.403,-0.352L0.395,-0.336L0.257,-0.336C0.248,-0.32 0.235,-0.299 0.219,-0.273C0.202,-0.247 0.186,-0.22 0.17,-0.192C0.154,-0.164 0.14,-0.137 0.128,-0.111C0.116,-0.085 0.11,-0.064 0.11,-0.047C0.11,-0.036 0.113,-0.027 0.12,-0.022C0.126,-0.017 0.135,-0.014 0.146,-0.014C0.163,-0.014 0.182,-0.019 0.201,-0.029C0.22,-0.038 0.24,-0.051 0.26,-0.066C0.279,-0.081 0.298,-0.098 0.317,-0.118C0.335,-0.136 0.352,-0.155 0.369,-0.174C0.385,-0.193 0.4,-0.21 0.413,-0.227C0.426,-0.243 0.437,-0.256 0.445,-0.266L0.453,-0.262C0.43,-0.235 0.406,-0.206 0.381,-0.174C0.356,-0.142 0.328,-0.112 0.299,-0.085C0.27,-0.057 0.238,-0.034 0.204,-0.016C0.17,0.003 0.133,0.012 0.093,0.012C0.062,0.012 0.04,0.004 0.025,-0.013C0.01,-0.029 0.002,-0.05 0.002,-0.076C0.002,-0.089 0.004,-0.102 0.008,-0.116C0.011,-0.129 0.018,-0.145 0.027,-0.164C0.036,-0.183 0.049,-0.206 0.064,-0.233C0.079,-0.26 0.099,-0.295 0.123,-0.336L0.042,-0.336Z" style="fill:white;fill-rule:nonzero;"/>
        </g>
        <g transform="matrix(128,0,0,128,1650.46,715.346)">
            <path d="M0.476,-0.706C0.409,-0.595 0.352,-0.502 0.305,-0.425C0.258,-0.348 0.219,-0.284 0.189,-0.233C0.158,-0.181 0.136,-0.14 0.122,-0.11C0.107,-0.079 0.1,-0.055 0.1,-0.037C0.1,-0.03 0.102,-0.024 0.107,-0.02C0.111,-0.016 0.116,-0.014 0.121,-0.014C0.136,-0.014 0.156,-0.023 0.179,-0.04C0.202,-0.057 0.227,-0.078 0.252,-0.103C0.276,-0.128 0.301,-0.156 0.324,-0.185C0.347,-0.214 0.367,-0.24 0.382,-0.264L0.39,-0.26C0.385,-0.253 0.378,-0.242 0.367,-0.226C0.356,-0.21 0.343,-0.192 0.327,-0.172C0.311,-0.151 0.293,-0.13 0.274,-0.109C0.254,-0.088 0.233,-0.068 0.212,-0.05C0.19,-0.032 0.167,-0.017 0.145,-0.006C0.122,0.006 0.099,0.012 0.076,0.012C0.048,0.012 0.027,0.005 0.013,-0.009C-0.001,-0.023 -0.008,-0.041 -0.008,-0.062C-0.008,-0.077 -0.006,-0.092 -0.001,-0.109C0.004,-0.125 0.011,-0.144 0.022,-0.167C0.032,-0.189 0.046,-0.215 0.063,-0.246C0.08,-0.276 0.1,-0.312 0.126,-0.354C0.151,-0.396 0.18,-0.445 0.214,-0.501C0.247,-0.557 0.286,-0.622 0.329,-0.696L0.476,-0.706Z" style="fill:white;fill-rule:nonzero;"/>
        </g>
        <g transform="matrix(128,0,0,128,1686.04,715.346)">
            <path d="M0.544,-0.257C0.529,-0.235 0.511,-0.213 0.493,-0.191C0.474,-0.168 0.452,-0.145 0.428,-0.122C0.382,-0.078 0.337,-0.045 0.294,-0.022C0.251,0.001 0.202,0.012 0.149,0.012C0.103,0.012 0.068,0.001 0.044,-0.02C0.02,-0.041 0.008,-0.072 0.008,-0.113C0.008,-0.148 0.018,-0.182 0.038,-0.213C0.058,-0.244 0.083,-0.272 0.114,-0.295C0.144,-0.318 0.177,-0.337 0.213,-0.351C0.248,-0.365 0.282,-0.372 0.314,-0.372C0.346,-0.372 0.372,-0.367 0.393,-0.357C0.414,-0.346 0.424,-0.329 0.424,-0.306C0.424,-0.283 0.413,-0.262 0.39,-0.245C0.367,-0.228 0.341,-0.213 0.31,-0.201C0.279,-0.188 0.247,-0.178 0.216,-0.171C0.185,-0.163 0.16,-0.157 0.142,-0.153C0.141,-0.146 0.14,-0.14 0.139,-0.133C0.138,-0.126 0.138,-0.12 0.138,-0.113C0.138,-0.101 0.139,-0.089 0.142,-0.078C0.145,-0.066 0.149,-0.056 0.156,-0.047C0.162,-0.038 0.17,-0.031 0.181,-0.026C0.191,-0.021 0.204,-0.018 0.219,-0.018C0.25,-0.018 0.284,-0.029 0.32,-0.053C0.356,-0.076 0.392,-0.104 0.429,-0.139C0.452,-0.162 0.473,-0.184 0.491,-0.205C0.508,-0.226 0.523,-0.246 0.535,-0.263L0.544,-0.257ZM0.324,-0.332C0.324,-0.351 0.315,-0.36 0.296,-0.36C0.281,-0.36 0.266,-0.353 0.249,-0.338C0.232,-0.323 0.216,-0.305 0.202,-0.284C0.187,-0.263 0.175,-0.241 0.164,-0.219C0.153,-0.197 0.147,-0.179 0.144,-0.164C0.172,-0.17 0.197,-0.179 0.22,-0.192C0.242,-0.204 0.261,-0.218 0.277,-0.233C0.292,-0.248 0.304,-0.265 0.312,-0.282C0.32,-0.299 0.324,-0.316 0.324,-0.332Z" style="fill:white;fill-rule:nonzero;"/>
        </g>
        <g transform="matrix(128,0,0,128,1740.57,715.346)">
            <path d="M0.523,-0.258C0.498,-0.221 0.472,-0.187 0.445,-0.154C0.417,-0.121 0.386,-0.093 0.352,-0.068C0.318,-0.043 0.28,-0.024 0.238,-0.01C0.196,0.005 0.148,0.012 0.094,0.012C0.074,0.012 0.055,0.01 0.038,0.006C0.02,0.002 0.005,-0.004 -0.008,-0.013C-0.021,-0.022 -0.031,-0.033 -0.038,-0.047C-0.045,-0.06 -0.049,-0.076 -0.049,-0.095C-0.049,-0.12 -0.041,-0.139 -0.026,-0.154C-0.01,-0.168 0.008,-0.175 0.029,-0.175C0.043,-0.175 0.055,-0.171 0.065,-0.163C0.075,-0.155 0.08,-0.143 0.08,-0.127C0.08,-0.112 0.076,-0.101 0.067,-0.094C0.058,-0.087 0.049,-0.083 0.038,-0.083C0.03,-0.083 0.023,-0.084 0.018,-0.086C0.015,-0.081 0.013,-0.074 0.013,-0.067C0.013,-0.046 0.019,-0.029 0.03,-0.018C0.041,-0.006 0.058,-0 0.08,-0C0.109,-0 0.13,-0.008 0.144,-0.025C0.158,-0.042 0.165,-0.062 0.165,-0.085C0.165,-0.099 0.161,-0.113 0.152,-0.126C0.143,-0.139 0.134,-0.153 0.124,-0.167C0.113,-0.18 0.104,-0.194 0.095,-0.208C0.086,-0.221 0.082,-0.235 0.082,-0.249C0.082,-0.265 0.086,-0.28 0.093,-0.295C0.1,-0.31 0.111,-0.323 0.126,-0.335C0.14,-0.346 0.157,-0.355 0.178,-0.362C0.199,-0.369 0.222,-0.372 0.249,-0.372C0.288,-0.372 0.319,-0.366 0.344,-0.353C0.368,-0.339 0.38,-0.321 0.38,-0.296C0.38,-0.277 0.374,-0.262 0.361,-0.251C0.348,-0.239 0.333,-0.233 0.316,-0.233C0.301,-0.233 0.286,-0.237 0.273,-0.245C0.278,-0.252 0.281,-0.26 0.284,-0.268C0.287,-0.276 0.288,-0.285 0.288,-0.295C0.288,-0.312 0.284,-0.327 0.277,-0.34C0.269,-0.353 0.256,-0.36 0.239,-0.36C0.224,-0.36 0.212,-0.355 0.203,-0.344C0.194,-0.333 0.19,-0.319 0.19,-0.302C0.19,-0.285 0.195,-0.27 0.205,-0.256C0.215,-0.241 0.226,-0.227 0.238,-0.213C0.249,-0.199 0.26,-0.184 0.27,-0.169C0.28,-0.154 0.285,-0.136 0.285,-0.117C0.285,-0.094 0.28,-0.075 0.27,-0.06C0.259,-0.044 0.243,-0.03 0.222,-0.018L0.224,-0.016C0.253,-0.024 0.281,-0.037 0.309,-0.054C0.336,-0.07 0.363,-0.09 0.388,-0.113C0.413,-0.136 0.437,-0.16 0.459,-0.187C0.48,-0.213 0.499,-0.239 0.516,-0.266L0.523,-0.258Z" style="fill:white;fill-rule:nonzero;"/>
        </g>
        <g transform="matrix(128,0,0,128,1792.67,715.346)">
            <path d="M-0.077,-0C-0.008,-0.116 0.059,-0.232 0.126,-0.348C0.193,-0.463 0.26,-0.579 0.329,-0.696L0.472,-0.706C0.417,-0.613 0.361,-0.52 0.305,-0.426C0.248,-0.332 0.192,-0.242 0.135,-0.157L0.137,-0.155C0.152,-0.176 0.17,-0.199 0.191,-0.224C0.211,-0.249 0.233,-0.272 0.257,-0.294C0.281,-0.316 0.306,-0.335 0.333,-0.35C0.36,-0.365 0.386,-0.372 0.413,-0.372C0.435,-0.372 0.454,-0.366 0.471,-0.355C0.487,-0.343 0.495,-0.323 0.495,-0.296C0.495,-0.272 0.488,-0.248 0.475,-0.224C0.461,-0.199 0.446,-0.176 0.429,-0.154C0.412,-0.131 0.397,-0.11 0.384,-0.09C0.37,-0.07 0.363,-0.053 0.363,-0.038C0.363,-0.031 0.365,-0.025 0.369,-0.021C0.372,-0.016 0.378,-0.014 0.385,-0.014C0.398,-0.014 0.413,-0.02 0.431,-0.031C0.448,-0.042 0.465,-0.055 0.483,-0.072C0.5,-0.089 0.518,-0.107 0.535,-0.128C0.552,-0.148 0.568,-0.167 0.583,-0.186C0.598,-0.204 0.61,-0.22 0.621,-0.235C0.632,-0.249 0.639,-0.259 0.644,-0.264L0.65,-0.259C0.639,-0.245 0.626,-0.229 0.613,-0.21C0.599,-0.191 0.584,-0.172 0.568,-0.152C0.551,-0.131 0.534,-0.111 0.516,-0.092C0.498,-0.073 0.48,-0.055 0.461,-0.04C0.442,-0.024 0.422,-0.011 0.402,-0.002C0.381,0.007 0.361,0.012 0.34,0.012C0.327,0.012 0.316,0.01 0.306,0.005C0.296,-0 0.288,-0.007 0.281,-0.016C0.274,-0.024 0.269,-0.034 0.266,-0.045C0.263,-0.055 0.261,-0.067 0.261,-0.078C0.261,-0.103 0.267,-0.127 0.28,-0.149C0.293,-0.171 0.307,-0.192 0.322,-0.212C0.337,-0.231 0.35,-0.249 0.363,-0.267C0.375,-0.284 0.381,-0.299 0.381,-0.313C0.381,-0.33 0.373,-0.338 0.358,-0.338C0.346,-0.338 0.332,-0.333 0.315,-0.322C0.298,-0.311 0.28,-0.296 0.261,-0.278C0.242,-0.259 0.222,-0.238 0.203,-0.215C0.183,-0.192 0.164,-0.168 0.146,-0.143C0.128,-0.118 0.112,-0.094 0.097,-0.071C0.082,-0.047 0.069,-0.025 0.06,-0.006L-0.077,-0Z" style="fill:white;fill-rule:nonzero;"/>
        </g>
        <g transform="matrix(128,0,0,128,1861.4,715.346)">
            <path d="M0.275,-0.36C0.254,-0.326 0.233,-0.293 0.212,-0.261C0.191,-0.229 0.173,-0.199 0.157,-0.172C0.141,-0.144 0.128,-0.119 0.119,-0.098C0.109,-0.077 0.104,-0.06 0.104,-0.047C0.104,-0.038 0.106,-0.03 0.109,-0.024C0.112,-0.017 0.118,-0.014 0.127,-0.014C0.14,-0.014 0.155,-0.019 0.171,-0.029C0.186,-0.038 0.202,-0.051 0.219,-0.066C0.236,-0.081 0.252,-0.097 0.269,-0.117C0.286,-0.135 0.301,-0.154 0.316,-0.173C0.331,-0.191 0.344,-0.208 0.356,-0.225C0.367,-0.241 0.377,-0.254 0.384,-0.264L0.392,-0.261C0.376,-0.238 0.356,-0.211 0.332,-0.179C0.308,-0.146 0.281,-0.115 0.251,-0.084C0.22,-0.053 0.192,-0.029 0.166,-0.013C0.14,0.004 0.111,0.012 0.079,0.012C0.052,0.012 0.031,0.004 0.017,-0.012C0.003,-0.027 -0.004,-0.049 -0.004,-0.077C-0.004,-0.107 0.009,-0.145 0.035,-0.19C0.06,-0.235 0.093,-0.29 0.132,-0.356L0.275,-0.36ZM0.224,-0.516C0.224,-0.535 0.231,-0.552 0.245,-0.566C0.258,-0.579 0.275,-0.586 0.294,-0.586C0.313,-0.586 0.33,-0.579 0.344,-0.566C0.357,-0.552 0.364,-0.535 0.364,-0.516C0.364,-0.497 0.357,-0.48 0.344,-0.467C0.33,-0.453 0.313,-0.446 0.294,-0.446C0.275,-0.446 0.258,-0.453 0.245,-0.467C0.231,-0.48 0.224,-0.497 0.224,-0.516Z" style="fill:white;fill-rule:nonzero;"/>
        </g>
        <g transform="matrix(128,0,0,128,1896.99,715.346)">
            <path d="M0.396,-0.562L0.146,-0.189L0.148,-0.187C0.162,-0.205 0.177,-0.225 0.194,-0.246C0.211,-0.267 0.229,-0.287 0.249,-0.306C0.269,-0.325 0.29,-0.34 0.313,-0.353C0.336,-0.366 0.36,-0.372 0.385,-0.372C0.4,-0.372 0.413,-0.369 0.425,-0.363C0.437,-0.357 0.447,-0.349 0.456,-0.339C0.465,-0.329 0.472,-0.318 0.477,-0.305C0.482,-0.292 0.484,-0.278 0.484,-0.264C0.484,-0.23 0.477,-0.2 0.463,-0.174C0.448,-0.147 0.432,-0.125 0.414,-0.106L0.414,-0.104C0.461,-0.117 0.504,-0.138 0.542,-0.166C0.579,-0.193 0.613,-0.227 0.644,-0.266L0.652,-0.261C0.621,-0.217 0.583,-0.18 0.54,-0.151C0.497,-0.121 0.45,-0.1 0.401,-0.089C0.385,-0.075 0.367,-0.062 0.348,-0.05C0.328,-0.038 0.308,-0.027 0.288,-0.018C0.268,-0.009 0.249,-0.001 0.23,0.004C0.211,0.009 0.193,0.012 0.178,0.012C0.171,0.012 0.165,0.012 0.158,0.011C0.151,0.01 0.144,0.009 0.138,0.006C0.132,0.003 0.127,-0 0.124,-0.006C0.12,-0.011 0.118,-0.017 0.118,-0.025C0.118,-0.038 0.124,-0.049 0.137,-0.058C0.149,-0.066 0.164,-0.073 0.182,-0.078C0.199,-0.083 0.218,-0.086 0.237,-0.089C0.256,-0.091 0.272,-0.092 0.285,-0.093C0.291,-0.102 0.298,-0.113 0.306,-0.126C0.313,-0.139 0.321,-0.153 0.328,-0.168C0.335,-0.183 0.342,-0.199 0.347,-0.217C0.352,-0.234 0.354,-0.252 0.354,-0.271C0.354,-0.276 0.354,-0.281 0.353,-0.287C0.352,-0.293 0.351,-0.299 0.348,-0.305C0.345,-0.31 0.341,-0.315 0.336,-0.319C0.331,-0.322 0.324,-0.324 0.315,-0.324C0.299,-0.324 0.281,-0.314 0.261,-0.295C0.24,-0.276 0.22,-0.252 0.199,-0.225C0.178,-0.197 0.157,-0.168 0.138,-0.138C0.119,-0.108 0.101,-0.082 0.086,-0.06C0.044,0.001 0.005,0.064 -0.031,0.128C-0.067,0.192 -0.103,0.255 -0.139,0.318L-0.282,0.324C-0.191,0.179 -0.101,0.034 -0.014,-0.111C0.074,-0.256 0.163,-0.403 0.253,-0.552L0.396,-0.562ZM0.166,-0.021C0.166,-0.016 0.167,-0.011 0.17,-0.007C0.172,-0.002 0.177,-0 0.184,-0C0.193,-0 0.201,-0.003 0.21,-0.009C0.218,-0.014 0.226,-0.021 0.234,-0.03C0.241,-0.038 0.249,-0.047 0.256,-0.056C0.263,-0.065 0.27,-0.074 0.277,-0.081C0.262,-0.08 0.248,-0.078 0.235,-0.075C0.222,-0.072 0.21,-0.068 0.2,-0.063C0.189,-0.057 0.181,-0.051 0.175,-0.045C0.169,-0.038 0.166,-0.03 0.166,-0.021Z" style="fill:white;fill-rule:nonzero;"/>
        </g>
    </g>
</svg>
